<svg width="683" height="683" viewBox="0 0 683 683" fill="none" xmlns="http://www.w3.org/2000/svg">
<g clip-path="url(#clip0_21_292)">
<path d="M48.1333 42.8C25.2 47.3333 5.73335 67.0667 1.33335 90.5333C-0.533317 100.267 -0.533317 342.4 1.33335 352.133C5.86668 376.133 25.2 395.467 49.2 400C53.2 400.667 61.7333 401.333 68.1333 401.333H80V433.467C80 463.733 80.1333 465.867 82.8 470.667C86 476.267 93.7333 481.333 99.2 481.333C105.467 481.333 110.667 478.267 155.733 448.133L200 418.667V461.867C200 485.6 200.667 508.133 201.333 512.133C205.867 536.133 225.2 555.467 249.2 560C253.733 560.8 294 561.333 356.533 561.333H456.667L513.867 599.467C545.467 620.533 573.2 638.533 575.6 639.467C578 640.533 581.467 641.333 583.467 641.333C588.933 641.333 596.667 636.267 599.867 630.667C602.533 625.867 602.667 623.733 602.667 593.467V561.333H614.533C620.933 561.333 629.467 560.667 633.467 560C657.467 555.467 676.8 536.133 681.333 512.133C683.2 502.4 683.2 260.267 681.333 250.533C676.8 226.533 657.467 207.2 633.467 202.667C629.2 201.867 597.733 201.333 554.533 201.333H482.667V149.467C482.667 119.867 482.133 94.6667 481.333 90.5333C476.8 66.5333 457.467 47.2 433.467 42.6667C424.533 41.0667 56.8 41.0667 48.1333 42.8ZM432 84C435.467 85.7333 438.267 88.5333 440 92C442.667 97.0667 442.667 99.6 442.667 221.333C442.667 343.067 442.667 345.6 440 350.667C438.267 354.133 435.467 356.933 432 358.667C426.933 361.333 424.4 361.333 322 361.333C236.133 361.333 216.4 361.6 212.8 363.2C210.4 364.133 188.533 378.267 164.267 394.533L120 424V400.667C120 373.333 118.667 368.8 109.333 364C104.667 361.6 101.467 361.333 80 361.333C52 361.333 47.4667 360 42.6667 350.667C40 345.6 40 343.067 40 221.333C40 99.6 40 97.0667 42.6667 92C44.2667 88.8 47.3333 85.7333 50.4 84.1333C55.2 81.4667 58.8 81.4667 241.067 81.3333C424.667 81.3333 426.8 81.3333 432 84ZM632 244C635.467 245.733 638.267 248.533 640 252C642.667 257.067 642.667 259.6 642.667 381.333C642.667 503.067 642.667 505.6 640 510.667C635.2 520 630.667 521.333 602.667 521.333C581.2 521.333 578 521.6 573.333 524C564 528.8 562.667 533.333 562.667 560.667V584L518.4 554.533C494.133 538.267 472.267 524.133 469.867 523.2C466.267 521.6 446.533 521.333 360.667 521.333C258.267 521.333 255.733 521.333 250.667 518.667C247.2 516.933 244.4 514.133 242.667 510.667C240.133 505.733 240 502.933 240 453.333V401.333H333.2C390.933 401.333 429.067 400.8 433.467 400C457.467 395.467 476.8 376.133 481.333 352.133C482.133 348 482.667 322.8 482.667 293.2V241.333H554.667C624.267 241.333 626.933 241.467 632 244Z" fill="#FE330A"/>
<path d="M90.4 164.133C84.6667 167.067 80 174.933 80 181.333C80 188 84.6667 195.6 90.6667 198.667C95.8667 201.333 98.2667 201.333 241.333 201.333C384.4 201.333 386.8 201.333 392 198.667C398 195.6 402.667 188 402.667 181.333C402.667 174.667 398 167.067 392 164C386.8 161.333 384.533 161.333 241.067 161.333C98.6667 161.467 95.2 161.467 90.4 164.133Z" fill="#FE330A"/>
<path d="M90.4 244.133C84.6667 247.067 80 254.933 80 261.333C80 268 84.6667 275.6 90.6667 278.667C95.7333 281.2 98.4 281.333 180 281.333C261.6 281.333 264.267 281.2 269.333 278.667C275.333 275.6 280 268 280 261.333C280 254.667 275.333 247.067 269.333 244C264.267 241.467 261.733 241.333 179.733 241.333C98.4 241.467 95.2 241.6 90.4 244.133Z" fill="#FE330A"/>
</g>
<defs>
<clipPath id="clip0_21_292">
<rect width="682.667" height="682.667" fill="white"/>
</clipPath>
</defs>
</svg>
