<?xml version="1.0" standalone="no"?>
<!DOCTYPE svg PUBLIC "-//W3C//DTD SVG 20010904//EN"
 "http://www.w3.org/TR/2001/REC-SVG-20010904/DTD/svg10.dtd">
<svg version="1.0" xmlns="http://www.w3.org/2000/svg"
 width="198.000000pt" height="198.000000pt" viewBox="0 0 198.000000 198.000000"
 preserveAspectRatio="xMidYMid meet">

<g transform="translate(0.000000,198.000000) scale(0.100000,-0.100000)"
fill="#000000" stroke="none">
<path d="M130 1912 c-19 -11 -44 -31 -55 -46 -19 -26 -20 -44 -23 -350 -3
-321 -3 -322 20 -356 13 -18 36 -43 51 -54 27 -20 42 -21 332 -24 l304 -3 -19
-50 c-69 -173 -2 -376 158 -477 147 -94 349 -77 476 39 120 110 163 260 117
410 -53 168 -199 279 -373 283 l-67 1 -3 265 c-3 244 -5 268 -23 299 -11 19
-33 43 -48 55 -28 20 -40 21 -420 24 -367 2 -394 1 -427 -16z m794 -98 c14
-13 16 -55 16 -308 0 -214 -3 -295 -12 -304 -9 -9 -108 -12 -385 -12 -358 0
-373 1 -383 19 -6 12 -10 127 -10 302 0 249 2 285 17 301 15 17 40 18 379 18
316 0 365 -2 378 -16z m319 -664 c179 -90 217 -330 74 -473 -58 -58 -117 -82
-207 -82 -58 0 -85 5 -121 23 -109 53 -169 150 -168 267 1 115 37 185 106 203
29 8 59 27 85 53 l41 41 71 -4 c50 -2 86 -11 119 -28z"/>
<path d="M397 1747 c-24 -17 -179 -433 -172 -458 7 -21 46 -35 70 -25 9 3 23
22 31 41 l14 35 83 0 82 0 17 -40 c14 -33 21 -40 45 -40 35 0 53 16 53 46 0
21 -146 423 -159 435 -14 15 -48 18 -64 6z m57 -274 c7 -21 4 -23 -33 -23 -45
0 -44 -6 -10 78 l11 27 13 -30 c7 -16 16 -40 19 -52z"/>
<path d="M742 1744 c-30 -21 -29 -59 3 -80 23 -15 27 -15 50 0 32 21 33 59 3
80 -12 9 -25 16 -28 16 -3 0 -16 -7 -28 -16z"/>
<path d="M686 1591 c-23 -25 -17 -63 12 -76 21 -9 22 -15 22 -121 0 -84 3
-114 14 -123 21 -18 116 -10 129 10 14 23 1 67 -23 74 -18 6 -20 15 -20 114 0
92 -3 110 -18 124 -26 24 -94 22 -116 -2z"/>
<path d="M1150 1711 c-23 -45 1 -81 55 -81 32 0 36 -4 61 -60 31 -70 110 -150
181 -182 38 -18 68 -22 146 -23 l98 -1 64 -109 63 -109 -29 -37 c-100 -127
-102 -322 -4 -436 l35 -41 -65 -113 c-36 -63 -67 -114 -68 -115 -1 -1 -23 1
-50 6 -64 9 -147 -5 -210 -36 -68 -34 -142 -113 -164 -175 l-18 -49 -135 0
-135 0 -19 52 c-22 62 -100 144 -167 175 -62 29 -144 43 -204 33 -27 -4 -51
-7 -52 -6 -1 1 -31 53 -67 115 l-65 114 35 41 c102 119 93 378 -11 302 -15
-11 -19 -28 -21 -82 -1 -79 -33 -155 -82 -196 -16 -14 -32 -33 -36 -44 -4 -14
24 -71 92 -189 111 -192 88 -176 229 -160 74 9 135 -9 190 -58 37 -33 83 -114
83 -147 0 -11 9 -29 20 -40 19 -19 33 -20 206 -20 104 0 193 4 204 10 10 6 25
33 34 63 21 72 52 116 109 154 60 40 119 50 209 33 59 -11 71 -11 82 1 21 21
196 331 196 346 0 7 -18 30 -40 52 -53 52 -80 112 -80 180 0 79 18 125 72 187
26 30 48 60 48 65 0 15 -178 321 -200 343 -18 18 -22 18 -61 6 -86 -29 -181
-11 -256 46 -37 28 -83 110 -83 148 0 43 -24 56 -105 56 -63 0 -76 -3 -85 -19z"/>
</g>
</svg>
