<?xml version="1.0" standalone="no"?>
<!DOCTYPE svg PUBLIC "-//W3C//DTD SVG 20010904//EN"
 "http://www.w3.org/TR/2001/REC-SVG-20010904/DTD/svg10.dtd">
<svg version="1.0" xmlns="http://www.w3.org/2000/svg"
 width="198.000000pt" height="198.000000pt" viewBox="0 0 198.000000 198.000000"
 preserveAspectRatio="xMidYMid meet">

<g transform="translate(0.000000,198.000000) scale(0.100000,-0.100000)"
fill="#000000" stroke="none">
<path d="M631 1674 c-13 -9 -32 -35 -42 -58 -16 -36 -19 -67 -19 -249 l0 -207
-27 7 c-114 32 -234 -34 -279 -154 -9 -24 -23 -43 -31 -43 -52 0 -160 -97
-194 -175 -72 -164 -27 -359 106 -454 86 -62 77 -61 973 -61 l813 0 24 25 c24
23 25 30 25 150 0 120 -1 127 -25 150 -20 21 -34 25 -80 25 -48 0 -55 2 -55
20 0 18 7 20 59 20 52 0 62 3 80 26 19 24 21 40 21 148 0 157 -5 166 -96 166
-62 0 -64 1 -64 25 0 24 3 25 60 25 94 0 100 10 100 170 0 183 23 170 -290
170 l-250 0 0 100 c0 114 -12 150 -60 175 -24 13 -86 15 -377 15 -306 0 -351
-2 -372 -16z m740 -53 c22 -17 24 -28 27 -120 l4 -101 -214 -1 c-117 0 -238 0
-268 1 -101 2 -210 -52 -271 -134 l-29 -40 0 182 c0 181 0 183 25 207 l24 25
339 0 c320 0 341 -1 363 -19z m-426 -395 c0 -156 6 -166 102 -166 61 0 63 -1
63 -25 0 -24 -2 -25 -63 -25 -78 0 -98 -17 -105 -90 l-5 -50 -118 0 -118 0
-16 34 c-29 62 -101 79 -149 37 -64 -56 -57 -169 13 -205 59 -31 115 -10 141
54 l12 30 118 0 117 0 6 -57 c8 -76 28 -93 108 -93 51 0 59 -3 59 -19 0 -16
-10 -19 -67 -23 -54 -3 -69 -8 -81 -26 -14 -21 -20 -22 -201 -22 l-186 0 -15
33 c-9 19 -30 39 -52 50 -33 16 -40 17 -72 3 -48 -20 -70 -65 -63 -130 11
-116 142 -145 191 -41 l17 35 179 0 180 0 0 -79 c0 -44 3 -86 6 -95 6 -14 -29
-16 -343 -16 l-349 0 -52 26 c-226 113 -187 506 55 559 18 3 33 12 33 18 0 7
11 35 24 64 35 75 91 113 165 113 31 -1 67 -7 81 -15 40 -23 47 -18 75 42 14
31 37 72 51 90 48 63 143 112 219 113 l40 0 0 -124z m985 4 l0 -120 -467 2
-468 3 -3 104 c-1 58 0 111 2 118 4 10 95 13 471 13 l465 0 0 -120z m-160
-195 l0 -25 -305 0 -305 0 0 25 0 25 305 0 305 0 0 -25z m158 -192 l-3 -118
-465 0 -465 0 -3 104 c-1 58 0 111 2 118 4 10 95 13 471 13 l466 0 -3 -117z
m-1302 59 c21 -13 34 -52 28 -77 -6 -26 -39 -55 -61 -55 -24 0 -53 39 -53 72
0 52 48 86 86 60z m1144 -252 c0 -20 -7 -20 -305 -20 -298 0 -305 0 -305 20 0
20 7 20 305 20 298 0 305 0 305 -20z m-1258 -47 c24 -22 24 -77 -2 -103 -28
-28 -55 -25 -80 7 -50 64 23 150 82 96z m1418 -148 l0 -115 -470 0 -470 0 0
115 0 115 470 0 470 0 0 -115z"/>
<path d="M1086 1284 c-20 -20 -21 -88 -1 -108 34 -33 115 -32 137 3 11 18 12
18 29 -3 24 -29 114 -31 135 -2 16 23 18 79 4 107 -15 28 -123 28 -142 0 -14
-20 -14 -20 -26 0 -16 25 -112 27 -136 3z m104 -54 c0 -16 -7 -20 -34 -20 -36
0 -52 12 -41 30 3 6 22 10 41 10 27 0 34 -4 34 -20z m165 0 c0 -10 -12 -16
-37 -18 -33 -3 -38 0 -38 18 0 18 5 21 38 18 25 -2 37 -8 37 -18z"/>
<path d="M1536 1278 c-23 -33 -20 -75 9 -103 23 -24 29 -25 165 -25 136 0 142
1 165 25 29 28 32 70 9 103 -15 21 -21 22 -174 22 -153 0 -159 -1 -174 -22z
m314 -48 c0 -19 -7 -20 -140 -20 -133 0 -140 1 -140 20 0 19 7 20 140 20 133
0 140 -1 140 -20z"/>
<path d="M1090 900 c-26 -26 -27 -90 -2 -113 28 -25 118 -23 134 2 12 20 12
20 26 0 18 -27 111 -27 135 -1 26 28 22 97 -5 116 -31 22 -90 20 -120 -4 -25
-19 -26 -19 -43 0 -25 28 -98 27 -125 0z m100 -60 c0 -16 -7 -20 -34 -20 -36
0 -52 12 -41 30 3 6 22 10 41 10 27 0 34 -4 34 -20z m168 3 c-2 -13 -13 -18
-38 -18 -25 0 -36 5 -38 18 -3 14 4 17 38 17 34 0 41 -3 38 -17z"/>
<path d="M1547 907 c-26 -18 -33 -81 -13 -112 16 -25 17 -25 176 -25 153 0
159 1 174 22 22 31 20 84 -4 108 -18 18 -33 20 -168 20 -103 0 -153 -4 -165
-13z m303 -67 c0 -19 -7 -20 -140 -20 -133 0 -140 1 -140 20 0 19 7 20 140 20
133 0 140 -1 140 -20z"/>
<path d="M1086 508 c-22 -31 -20 -84 4 -108 27 -27 102 -28 129 -1 19 19 20
19 37 0 23 -26 104 -27 127 -1 23 26 22 94 -1 115 -27 24 -107 23 -128 -2 -16
-18 -17 -18 -35 0 -29 29 -113 27 -133 -3z m99 -53 c0 -15 -8 -21 -29 -23 -33
-4 -51 10 -42 33 9 25 71 16 71 -10z m170 0 c0 -15 -8 -21 -29 -23 -33 -4 -51
10 -42 33 9 25 71 16 71 -10z"/>
<path d="M1536 508 c-22 -31 -20 -84 4 -108 18 -18 33 -20 170 -20 137 0 152
2 170 20 24 24 26 77 4 108 -15 21 -21 22 -174 22 -153 0 -159 -1 -174 -22z
m314 -53 l0 -25 -140 0 -140 0 0 25 0 25 140 0 140 0 0 -25z"/>
</g>
</svg>
