<svg width="264" height="264" viewBox="0 0 264 264" fill="none" xmlns="http://www.w3.org/2000/svg">
<path d="M17.3334 9.06665C14.8 10.5333 11.4667 13.2 10 15.2C7.46671 18.6667 7.33337 21.0667 6.93337 61.8667C6.53337 104.667 6.53337 104.8 9.60004 109.333C11.3334 111.733 14.4 115.067 16.4 116.533C20 119.2 22 119.333 60.6667 119.733L101.2 120.133L98.6667 126.8C89.4667 149.867 98.4 176.933 119.733 190.4C139.333 202.933 166.267 200.667 183.2 185.2C199.2 170.533 204.933 150.533 198.8 130.533C191.733 108.133 172.267 93.3333 149.067 92.8L140.133 92.6667L139.733 57.3333C139.333 24.8 139.067 21.6 136.667 17.4667C135.2 14.9333 132.267 11.7333 130.267 10.1333C126.533 7.46665 124.933 7.33332 74.2667 6.93332C25.3334 6.66665 21.7334 6.79998 17.3334 9.06665ZM123.2 22.1333C125.067 23.8667 125.333 29.4667 125.333 63.2C125.333 91.7333 124.933 102.533 123.733 103.733C122.533 104.933 109.333 105.333 72.4 105.333C24.6667 105.333 22.6667 105.2 21.3334 102.8C20.5334 101.2 20 85.8667 20 62.5333C20 29.3333 20.2667 24.5333 22.2667 22.4C24.2667 20.1333 27.6 20 72.8 20C114.933 20 121.467 20.2667 123.2 22.1333ZM165.733 110.667C189.6 122.667 194.667 154.667 175.6 173.733C167.867 181.467 160 184.667 148 184.667C140.267 184.667 136.667 184 131.867 181.6C117.333 174.533 109.333 161.6 109.467 146C109.6 130.667 114.4 121.333 123.6 118.933C127.467 117.867 131.467 115.333 134.933 111.867L140.4 106.4L149.867 106.933C156.533 107.2 161.333 108.4 165.733 110.667Z" fill="#FE330A"/>
<path d="M52.9335 31.0666C49.7335 33.3333 29.0668 88.8 30.0001 92.1333C30.9335 94.9333 36.1335 96.8 39.3335 95.4667C40.5335 95.0667 42.4001 92.5333 43.4668 90L45.3335 85.3333H56.4001H67.3335L69.6001 90.6667C71.4668 95.0667 72.4001 96 75.6001 96C80.2668 96 82.6668 93.8667 82.6668 89.8667C82.6668 87.0667 63.2001 33.4666 61.4668 31.8666C59.6001 29.8666 55.0668 29.4666 52.9335 31.0666ZM60.5335 67.6C61.4668 70.4 61.0668 70.6667 56.1335 70.6667C50.1335 70.6667 50.2668 71.4667 54.8001 60.2666L56.2668 56.6666L58.0001 60.6666C58.9335 62.8 60.1335 66 60.5335 67.6Z" fill="#FE330A"/>
<path d="M98.9335 31.4666C94.9335 34.2666 95.0668 39.3333 99.3335 42.1333C102.4 44.1333 102.933 44.1333 106 42.1333C110.267 39.3333 110.4 34.2666 106.4 31.4666C104.8 30.2666 103.067 29.3333 102.667 29.3333C102.267 29.3333 100.533 30.2666 98.9335 31.4666Z" fill="#FE330A"/>
<path d="M91.4667 51.8666C88.4001 55.2 89.2001 60.2666 93.0667 62C95.8667 63.2 96.0001 64 96.0001 78.1333C96.0001 89.3333 96.4001 93.3333 97.8667 94.5333C100.667 96.9333 113.333 95.8666 115.067 93.2C116.933 90.1333 115.2 84.2666 112 83.3333C109.6 82.5333 109.333 81.3333 109.333 68.1333C109.333 55.8666 108.933 53.4666 106.933 51.6C103.467 48.4 94.4001 48.6666 91.4667 51.8666Z" fill="#FE330A"/>
<path d="M153.333 35.8666C150.267 41.8666 153.467 46.6666 160.667 46.6666C164.933 46.6666 165.467 47.2 168.8 54.6666C172.933 64 183.467 74.6666 192.933 78.9333C198 81.3333 202 81.8666 212.4 82L225.467 82.1333L234 96.6666L242.4 111.2L238.533 116.133C225.2 133.067 224.933 159.067 238 174.267L242.667 179.733L234 194.8C229.2 203.2 225.067 210 224.933 210.133C224.8 210.267 221.867 210 218.267 209.333C209.733 208.133 198.667 210 190.267 214.133C181.2 218.667 171.333 229.2 168.4 237.467L166 244H148H130L127.467 237.067C124.533 228.8 114.133 217.867 105.2 213.733C96.9335 209.867 86.0001 208 78.0001 209.333C74.4001 209.867 71.2001 210.267 71.0668 210.133C70.9335 210 66.9335 203.067 62.1335 194.8L53.4668 179.6L58.1335 174.133C71.7335 158.267 70.5335 123.733 56.6668 133.867C54.6668 135.333 54.1335 137.6 53.8668 144.8C53.7335 155.333 49.4668 165.467 42.9335 170.933C40.8001 172.8 38.6668 175.333 38.1335 176.8C37.6001 178.667 41.3335 186.267 50.4001 202C65.2001 227.6 62.1335 225.467 80.9335 223.333C90.8001 222.133 98.9335 224.533 106.267 231.067C111.2 235.467 117.333 246.267 117.333 250.667C117.333 252.133 118.533 254.533 120 256C122.533 258.533 124.4 258.667 147.467 258.667C161.333 258.667 173.2 258.133 174.667 257.333C176 256.533 178 252.933 179.2 248.933C182 239.333 186.133 233.467 193.733 228.4C201.733 223.067 209.6 221.733 221.6 224C229.467 225.467 231.067 225.467 232.533 223.867C235.333 221.067 258.667 179.733 258.667 177.733C258.667 176.8 256.267 173.733 253.333 170.8C246.267 163.867 242.667 155.867 242.667 146.8C242.667 136.267 245.067 130.133 252.267 121.867C255.733 117.867 258.667 113.867 258.667 113.2C258.667 111.2 234.933 70.4 232 67.4666C229.6 65.0666 229.067 65.0666 223.867 66.6666C212.4 70.5333 199.733 68.1333 189.733 60.5333C184.8 56.8 178.667 45.8666 178.667 40.8C178.667 35.0666 175.467 33.3333 164.667 33.3333C156.267 33.3333 154.533 33.7333 153.333 35.8666Z" fill="#FE330A"/>
</svg>
