<svg width="264" height="264" viewBox="0 0 264 264" fill="none" xmlns="http://www.w3.org/2000/svg">
<path d="M36.9335 10.2667C36.4002 10.6667 36.0002 17.0667 36.0002 24.2667V37.3333H30.4002C24.4002 37.3333 19.7335 40.4 20.9335 43.4667C21.3335 44.8 23.8668 45.3333 28.8002 45.3333H36.0002V61.3333V77.3333H30.1335C26.4002 77.3333 23.3335 78.1333 22.0002 79.4667C18.5335 82.9333 22.8002 86.6667 30.2668 86.6667H36.0002V102.667V118.667H29.6002C21.7335 118.667 19.0668 120.8 22.2668 124.267C23.7335 125.867 26.2668 126.667 30.2668 126.667H36.1335L35.7335 142.267L35.3335 158L28.6668 158.4C21.2002 158.933 19.0668 160.8 22.2668 164.267C23.7335 165.867 26.4002 166.667 30.2668 166.667H36.0002V182.667V198.667H29.4668C25.3335 198.667 22.4002 199.333 21.3335 200.667C18.5335 204.133 22.0002 206.667 29.4668 206.667H36.0002V215.333V224H24.8002C11.3335 224 9.3335 224.667 9.3335 228.8C9.3335 232 9.46683 232 22.6668 232H36.0002V244C36.0002 254 36.4002 256.267 38.1335 256.933C42.1335 258.4 44.0002 253.6 44.0002 242.4V232H150H256V228.8C256 227.067 255.067 225.2 253.867 224.8C252.667 224.4 211.067 224 161.2 224C111.467 224 70.6668 223.467 70.6668 222.933C70.6668 222.267 75.3335 220.533 81.0668 219.067C86.6668 217.6 98.6668 214 107.734 211.067C123.467 206 124.534 205.467 130.8 198.533C134.4 194.533 139.867 188.667 142.8 185.333C161.467 164.933 160 166 170 168C172.934 168.667 178.934 169.733 183.334 170.533C192.134 172.133 235.2 180.533 246.267 182.8C254.267 184.4 256 183.733 256 179.333C256 176.533 255.067 176.133 243.734 174C227.334 171.067 213.6 168.533 201.334 166C164.667 158.533 155.334 157.333 154.4 159.867C154 161.2 134.667 182.533 124 193.467C119.6 198 116.134 200.133 110.667 201.733C90.8002 207.6 74.1335 212.667 62.0002 216.667C41.6002 223.467 43.7335 225.333 44.0002 201.333C44.1335 179.333 44.4002 178.4 52.6668 168.267C53.6002 167.067 56.6668 163.333 59.3335 160.133C62.0002 156.933 64.8002 153.067 65.6002 151.467C66.4002 149.867 67.4668 148.4 68.0002 148C68.4002 147.6 74.4002 139.867 81.3335 130.667C89.4668 119.733 94.4002 114.133 95.8668 114.4C96.9335 114.667 105.067 117.2 114 120.133C122.8 122.933 131.334 125.333 132.934 125.333C134.8 125.333 136.667 123.733 138.534 120.667L141.334 115.867L146.267 119.2C152.667 123.467 165.734 128 171.467 128C173.867 128 179.334 126.933 183.867 125.467L191.867 122.933L195.6 127.867C197.6 130.533 199.867 133.333 200.8 134.267C201.6 135.067 202.934 137.467 203.867 139.6C205.734 143.867 214.8 151.6 219.334 152.8C226.4 154.533 238.667 144 238.667 136.267C238.667 130.667 234.4 123.733 228.667 120.133C225.467 118.133 220 114.267 216.267 111.467L209.6 106.267L212.267 100.133C217.334 88.8 215.867 70.9333 209.067 61.2C207.2 58.4 207.067 57.3333 208.4 56.4C209.2 55.6 220.267 50 232.934 43.8667C252.667 34.2667 255.867 32.2667 256 29.6C256 28 255.2 26.2667 254.134 25.8667C253.067 25.4667 245.067 28.6667 236.4 33.0667C227.734 37.3333 216.134 43.0667 210.667 45.6C200.667 50.2667 200.667 50.2667 197.067 47.7333C186.134 40.1333 166.134 38.5333 153.334 44.2667C143.467 48.6667 133.2 60.1333 130 70.2667C126.8 80.5333 127.734 94.9333 132.134 102.8L135.467 108.667L132.934 113.067C131.067 116.133 129.734 117.2 128.134 116.667C120.8 113.733 93.7335 105.333 91.8668 105.333C90.6668 105.333 83.8668 113.333 75.8668 124.133C68.2668 134.533 60.0002 145.467 57.6002 148.4C55.2002 151.333 51.3335 156.267 49.0668 159.467C46.8002 162.667 44.5335 165.333 44.1335 165.333C43.7335 165.333 43.4668 131.467 43.7335 90C43.8668 39.0667 43.6002 13.7333 42.6668 12C41.2002 9.33334 38.5335 8.53334 36.9335 10.2667ZM184.8 50.5333C201.6 58.1333 209.467 74.5333 205.467 93.3333C203.6 101.733 199.467 107.867 191.6 113.067C176.667 123.067 161.2 121.867 147.6 109.333C141.6 103.867 140 101.333 138.134 94.9333C135.467 85.0667 135.467 81.3333 138.267 72.2667C144.134 53.6 167.467 42.6667 184.8 50.5333ZM207.467 114.8C207.867 115.6 212.4 118.933 217.467 122.267C231.467 131.2 233.334 135.733 225.867 142.8C222.8 145.733 222.267 145.867 218.934 143.867C216.934 142.8 214.134 139.867 212.667 137.467C211.2 135.067 207.467 129.867 204.267 125.867C198.8 118.933 198.8 118.533 200.934 116.133C203.734 113.2 206.134 112.667 207.467 114.8Z" fill="#FE330A"/>
<path d="M160.267 60.9334C143.334 69.2 142.267 95.6 158.4 105.6C162.267 108 165.2 108.667 172.267 108.667C180.134 108.667 181.6 108.267 186.267 104.533C193.734 98.4 196.667 92.6667 196.534 84C196.534 68.6667 186.4 58.6667 171.067 58.6667C167.6 58.6667 162.667 59.7334 160.267 60.9334ZM180.667 69.2C185.067 71.7334 189.2 78.8 189.2 84C189.334 87.3334 184.934 95.8667 182.134 97.7334C174.534 102.8 162.667 100.667 157.734 93.3334C151.6 84.4 154.8 72.9334 164.667 68C170.4 65.0667 174 65.3334 180.667 69.2Z" fill="#FE330A"/>
</svg>
