<?xml version="1.0" standalone="no"?>
<!DOCTYPE svg PUBLIC "-//W3C//DTD SVG 20010904//EN"
 "http://www.w3.org/TR/2001/REC-SVG-20010904/DTD/svg10.dtd">
<svg version="1.0" xmlns="http://www.w3.org/2000/svg"
 width="198.000000pt" height="198.000000pt" viewBox="0 0 198.000000 198.000000"
 preserveAspectRatio="xMidYMid meet">

<g transform="translate(0.000000,198.000000) scale(0.100000,-0.100000)"
fill="#000000" stroke="none">
<path d="M123 1915 c-18 -8 -42 -29 -53 -47 -19 -31 -20 -46 -18 -320 l3 -286
25 -27 c49 -53 62 -55 420 -55 366 0 379 2 421 61 24 34 24 34 24 314 0 312
-1 314 -68 355 -30 19 -52 20 -377 20 -274 -1 -352 -4 -377 -15z m284 -127
c24 -30 164 -424 158 -445 -5 -23 -45 -40 -65 -28 -5 3 -19 24 -30 46 l-20 39
-79 0 -79 0 -16 -39 c-8 -22 -24 -42 -35 -46 -29 -9 -61 12 -61 39 0 26 134
389 156 424 16 24 55 30 71 10z m354 -9 c18 -34 -3 -69 -41 -69 -22 0 -33 6
-41 24 -16 35 3 66 41 66 20 0 33 -7 41 -21z m-1 -148 c5 -11 10 -65 10 -120
0 -89 2 -101 19 -111 55 -29 26 -90 -42 -90 -68 0 -77 16 -77 141 0 98 -2 108
-19 114 -25 8 -35 38 -21 65 15 29 114 30 130 1z"/>
<path d="M363 1593 c-3 -10 -12 -33 -19 -52 -20 -49 -19 -51 32 -51 40 0 45 2
39 18 -4 9 -14 36 -22 60 -16 47 -21 50 -30 25z"/>
<path d="M1040 1506 l0 -223 88 -5 c67 -4 101 -12 144 -32 83 -39 152 -105
190 -184 31 -63 33 -73 33 -177 0 -101 -2 -115 -28 -168 -77 -155 -257 -249
-419 -219 -129 24 -230 99 -291 216 -30 58 -32 67 -32 171 0 92 4 118 22 158
l22 47 -231 0 -230 0 35 -40 c89 -98 80 -262 -18 -348 -18 -16 -36 -38 -39
-48 -4 -13 25 -73 92 -189 111 -192 91 -177 222 -160 96 13 175 -21 237 -103
18 -24 36 -62 40 -84 12 -76 18 -78 229 -78 104 0 193 4 204 10 10 6 25 33 34
63 21 72 52 116 109 154 60 40 119 50 209 33 59 -11 71 -11 82 1 21 21 196
331 196 346 0 7 -17 30 -39 51 -58 57 -84 115 -83 187 0 75 17 118 76 184 25
28 46 56 46 62 0 14 -169 307 -195 337 -22 25 -24 26 -65 12 -146 -48 -314 43
-336 182 -11 65 -19 68 -170 68 l-134 0 0 -224z"/>
<path d="M1047 1180 c-142 -36 -246 -175 -234 -313 14 -159 140 -277 297 -277
114 0 214 62 268 164 35 68 38 186 6 257 -56 121 -213 199 -337 169z"/>
</g>
</svg>
