<svg width="264" height="264" viewBox="0 0 264 264" fill="none" xmlns="http://www.w3.org/2000/svg">
<g clip-path="url(#clip0_15_240)">
<path d="M84.1334 40.8C82.4001 42 79.8667 45.4667 78.5334 48.5333C76.4001 53.3333 76.0001 57.4667 76.0001 81.7333V109.333L72.4001 108.4C57.2001 104.133 41.2001 112.933 35.2001 128.933C34.0001 132.133 32.1334 134.667 31.0667 134.667C24.1334 134.667 9.73338 147.6 5.20005 158C-4.39995 179.867 1.60005 205.867 19.3334 218.533C30.8001 226.8 29.6001 226.667 149.067 226.667H257.467L260.667 223.333C263.867 220.267 264 219.333 264 203.333C264 187.333 263.867 186.4 260.667 183.333C258 180.533 256.133 180 250 180C243.6 180 242.667 179.733 242.667 177.333C242.667 174.933 243.6 174.667 250.533 174.667C257.467 174.667 258.8 174.267 261.2 171.2C263.733 168 264 165.867 264 151.467C264 130.533 263.333 129.333 251.2 129.333C242.933 129.333 242.667 129.2 242.667 126C242.667 122.8 243.067 122.667 250.667 122.667C263.2 122.667 264 121.333 264 100C264 75.6 267.067 77.3333 225.333 77.3333H192V64C192 48.8 190.4 44 184 40.6667C180.8 38.9333 172.533 38.6667 133.733 38.6667C92.9334 38.6667 86.9334 38.9333 84.1334 40.8ZM182.8 47.8667C185.733 50.1333 186 51.6 186.4 63.8667L186.933 77.3333L158.4 77.4667C142.8 77.4667 126.667 77.4667 122.667 77.3333C109.2 77.0667 94.6667 84.2667 86.5334 95.2L82.6667 100.533V76.2667C82.6667 52.1333 82.6667 51.8667 86.0001 48.6667L89.2001 45.3333H134.4C177.067 45.3333 179.867 45.4667 182.8 47.8667ZM126 100.533C126 121.333 126.8 122.667 139.6 122.667C147.733 122.667 148 122.8 148 126C148 129.2 147.733 129.333 139.6 129.333C129.2 129.333 126.533 131.6 125.6 141.333L124.933 148H109.2H93.4667L91.3334 143.467C87.4667 135.2 77.8667 132.933 71.4667 138.533C62.9334 146 63.8667 161.067 73.2001 165.867C81.0667 170 88.5334 167.2 92.0001 158.667L93.6001 154.667H109.333H124.933L125.733 162.267C126.8 172.4 129.467 174.667 140.133 174.667C146.933 174.667 148 175.067 148 177.2C148 179.333 146.667 179.733 139.067 180.267C131.867 180.667 129.867 181.333 128.267 183.733C126.4 186.533 125.6 186.667 101.467 186.667H76.6667L74.6667 182.267C73.4667 179.733 70.6667 177.067 67.7334 175.6C63.3334 173.467 62.4001 173.333 58.1334 175.2C51.7334 177.867 48.8001 183.867 49.7334 192.533C51.2001 208 68.6667 211.867 75.2001 198L77.4667 193.333H101.333H125.333V203.867C125.333 209.733 125.733 215.333 126.133 216.533C126.933 218.4 122.267 218.667 80.4001 218.667H33.8667L26.9334 215.2C-3.19995 200.133 2.00005 147.733 34.2667 140.667C36.6667 140.267 38.6667 139.067 38.6667 138.267C38.6667 137.333 40.1334 133.6 41.8667 129.733C46.5334 119.733 54.0001 114.667 63.8667 114.667C68.0001 114.8 72.8001 115.6 74.6667 116.667C80.0001 119.733 80.9334 119.067 84.6667 111.067C86.5334 106.933 89.6001 101.467 91.4667 99.0667C97.8667 90.6667 110.533 84.1333 120.667 84H126V100.533ZM257.333 100V116L195.067 115.733L132.667 115.333L132.267 101.467C132.133 93.7333 132.267 86.6667 132.533 85.7333C133.067 84.4 145.2 84 195.333 84H257.333V100ZM236 126V129.333H195.333H154.667V126V122.667H195.333H236V126ZM257.067 151.6L256.667 167.333H194.667H132.667L132.267 153.467C132.133 145.733 132.267 138.667 132.533 137.733C133.067 136.4 145.2 136 195.333 136H257.467L257.067 151.6ZM83.4667 143.733C86.2667 145.467 88.0001 150.667 87.2001 154C86.4001 157.467 82.0001 161.333 79.0667 161.333C75.8667 161.333 72.0001 156.133 72.0001 151.733C72.0001 144.8 78.4001 140.267 83.4667 143.733ZM236 177.333C236 180 235.067 180 195.333 180C155.6 180 154.667 180 154.667 177.333C154.667 174.667 155.6 174.667 195.333 174.667C235.067 174.667 236 174.667 236 177.333ZM68.2667 183.6C71.4667 186.533 71.4667 193.867 68.0001 197.333C64.2667 201.067 60.6667 200.667 57.3334 196.4C50.6667 187.867 60.4001 176.4 68.2667 183.6ZM257.333 203.333V218.667H194.667H132V203.333V188H194.667H257.333V203.333Z" fill="#FE330A"/>
<path d="M144.8 92.8C142.133 95.4667 142 104.533 144.667 107.2C149.2 111.6 160 111.467 162.933 106.8C164.4 104.4 164.533 104.4 166.8 107.2C170 111.067 182 111.333 184.8 107.467C186.933 104.4 187.2 96.9333 185.333 93.2C183.333 89.4667 168.933 89.4667 166.4 93.2C164.533 95.8667 164.533 95.8667 162.933 93.2C160.8 89.8667 148 89.6 144.8 92.8ZM158.667 100C158.667 102.133 157.733 102.667 154.133 102.667C149.333 102.667 147.2 101.067 148.667 98.6667C149.067 97.8667 151.6 97.3333 154.133 97.3333C157.733 97.3333 158.667 97.8667 158.667 100ZM180.667 100C180.667 101.333 179.067 102.133 175.733 102.4C171.333 102.8 170.667 102.4 170.667 100C170.667 97.6 171.333 97.2 175.733 97.6C179.067 97.8667 180.667 98.6667 180.667 100Z" fill="#FE330A"/>
<path d="M204.8 93.6C201.733 98 202.133 103.6 206 107.333C209.067 110.533 209.867 110.667 228 110.667C246.133 110.667 246.933 110.533 250 107.333C253.867 103.6 254.267 98 251.2 93.6C249.2 90.8 248.4 90.6667 228 90.6667C207.6 90.6667 206.8 90.8 204.8 93.6ZM246.667 100C246.667 102.533 245.733 102.667 228 102.667C210.267 102.667 209.333 102.533 209.333 100C209.333 97.4667 210.267 97.3334 228 97.3334C245.733 97.3334 246.667 97.4667 246.667 100Z" fill="#FE330A"/>
<path d="M145.333 144C141.867 147.467 141.733 156 145.067 159.067C148.8 162.4 160.8 162.133 162.933 158.8C164.533 156.133 164.533 156.133 166.4 158.8C168.8 162.4 181.2 162.4 184.4 158.933C187.867 155.2 187.333 146 183.733 143.467C179.6 140.533 171.733 140.8 167.733 144C164.4 146.533 164.267 146.533 162 144C158.667 140.267 148.933 140.4 145.333 144ZM158.667 152C158.667 154.133 157.733 154.667 154.133 154.667C149.333 154.667 147.2 153.067 148.667 150.667C149.067 149.867 151.6 149.333 154.133 149.333C157.733 149.333 158.667 149.867 158.667 152ZM181.067 151.6C180.8 153.333 179.333 154 176 154C172.667 154 171.2 153.333 170.933 151.6C170.533 149.733 171.467 149.333 176 149.333C180.533 149.333 181.467 149.733 181.067 151.6Z" fill="#FE330A"/>
<path d="M206.267 143.067C202.8 145.467 201.867 153.867 204.533 158C206.667 161.333 206.8 161.333 228 161.333C248.4 161.333 249.2 161.2 251.2 158.4C254.133 154.267 253.867 147.2 250.667 144C248.267 141.6 246.267 141.333 228.267 141.333C214.533 141.333 207.867 141.867 206.267 143.067ZM246.667 152C246.667 154.533 245.733 154.667 228 154.667C210.267 154.667 209.333 154.533 209.333 152C209.333 149.467 210.267 149.333 228 149.333C245.733 149.333 246.667 149.467 246.667 152Z" fill="#FE330A"/>
<path d="M144.8 196.267C141.867 200.4 142.133 207.467 145.333 210.667C148.933 214.267 158.933 214.4 162.533 210.8C165.067 208.267 165.2 208.267 167.467 210.8C170.533 214.267 181.333 214.4 184.4 210.933C187.467 207.467 187.333 198.4 184.267 195.6C180.667 192.4 170 192.533 167.2 195.867C165.067 198.267 164.933 198.267 162.533 195.867C158.667 192 147.467 192.267 144.8 196.267ZM158 203.333C158 205.333 156.933 206.133 154.133 206.4C149.733 206.933 147.333 205.067 148.533 202C149.733 198.667 158 199.867 158 203.333ZM180.667 203.333C180.667 205.333 179.6 206.133 176.8 206.4C172.4 206.933 170 205.067 171.2 202C172.4 198.667 180.667 199.867 180.667 203.333Z" fill="#FE330A"/>
<path d="M204.8 196.267C201.867 200.4 202.133 207.467 205.333 210.667C207.733 213.067 209.733 213.333 228 213.333C246.267 213.333 248.267 213.067 250.667 210.667C253.867 207.467 254.133 200.4 251.2 196.267C249.2 193.467 248.4 193.333 228 193.333C207.6 193.333 206.8 193.467 204.8 196.267ZM246.667 203.333V206.667H228H209.333V203.333V200H228H246.667V203.333Z" fill="#FE330A"/>
</g>
<defs>
<clipPath id="clip0_15_240">
<rect width="264" height="264" fill="white"/>
</clipPath>
</defs>
</svg>
