<?xml version="1.0" standalone="no"?>
<!DOCTYPE svg PUBLIC "-//W3C//DTD SVG 20010904//EN"
 "http://www.w3.org/TR/2001/REC-SVG-20010904/DTD/svg10.dtd">
<svg version="1.0" xmlns="http://www.w3.org/2000/svg"
 width="198.000000pt" height="198.000000pt" viewBox="0 0 198.000000 198.000000"
 preserveAspectRatio="xMidYMid meet">

<g transform="translate(0.000000,198.000000) scale(0.100000,-0.100000)"
fill="#000000" stroke="none">
<path d="M140 1834 c-81 -35 -124 -107 -118 -195 9 -124 114 -199 243 -175 49
10 121 77 137 127 l11 39 119 0 119 0 -3 -132 c-3 -113 -5 -132 -18 -129 -79
21 -119 23 -171 7 -67 -19 -138 -77 -163 -134 -16 -35 -26 -43 -80 -62 -82
-30 -165 -113 -191 -191 -54 -160 15 -334 163 -406 56 -27 61 -28 260 -31
l202 -3 0 -100 0 -99 -119 0 -119 0 -12 35 c-35 106 -156 162 -258 120 -148
-63 -165 -265 -29 -349 111 -69 261 -9 292 117 l7 27 124 0 c164 0 164 0 164
145 l0 105 275 0 275 0 0 -99 c0 -84 3 -102 21 -125 20 -26 21 -26 168 -26
l148 0 11 -39 c53 -175 302 -178 368 -4 59 153 -97 307 -250 249 -53 -20 -111
-81 -121 -125 l-7 -31 -144 0 -144 0 0 99 0 100 203 3 c182 3 207 5 249 25 66
30 133 96 165 162 38 76 39 190 4 268 -27 62 -112 145 -170 169 -32 13 -43 23
-50 50 -38 139 -165 224 -312 210 -85 -8 -91 1 -87 112 l3 77 143 3 c106 2
142 -1 142 -10 0 -6 10 -32 21 -56 30 -62 95 -102 165 -102 90 0 149 36 185
115 75 161 -94 330 -256 256 -49 -22 -101 -79 -110 -120 l-7 -31 -143 0 c-179
0 -187 -4 -193 -104 -4 -61 -6 -66 -21 -53 -30 27 -97 55 -159 68 -111 23
-235 -12 -327 -93 l-45 -40 0 87 c0 78 -2 88 -25 110 -23 24 -30 25 -144 25
l-119 0 -12 35 c-35 106 -159 163 -260 119z m154 -53 c67 -44 88 -140 46 -209
-26 -43 -98 -76 -143 -66 -85 18 -127 67 -127 149 0 64 31 111 90 137 31 14
105 8 134 -11z m1564 -1 c43 -26 72 -76 72 -123 0 -111 -105 -182 -203 -139
-79 35 -113 113 -81 190 33 84 136 118 212 72z m-713 -261 c28 -13 78 -51 113
-86 56 -57 65 -62 88 -53 70 27 181 3 242 -54 28 -25 63 -89 72 -131 5 -25 17
-36 69 -61 81 -41 105 -65 143 -141 28 -56 30 -70 26 -130 -8 -112 -63 -193
-163 -239 l-50 -24 -710 0 -710 0 -50 24 c-68 31 -131 104 -151 174 -45 155
54 319 211 352 23 4 36 17 53 50 62 119 165 166 277 124 22 -8 44 -16 49 -17
6 -1 21 19 35 44 53 93 116 150 204 181 71 25 183 20 252 -13z m-866 -1064
c53 -27 81 -71 81 -126 0 -84 -44 -139 -122 -154 -50 -9 -121 23 -148 67 -28
46 -27 126 2 163 48 61 126 82 187 50z m1579 -5 c103 -63 94 -214 -15 -262
-62 -27 -116 -17 -164 31 -51 50 -59 105 -27 168 39 78 133 107 206 63z"/>
<path d="M234 1675 c-29 -50 -38 -54 -54 -25 -13 24 -50 27 -50 4 0 -18 57
-104 69 -104 18 0 101 128 101 155 0 33 -39 14 -66 -30z"/>
<path d="M1800 1678 l-32 -52 -16 27 c-19 31 -52 36 -52 9 0 -21 55 -102 69
-102 18 0 101 127 101 155 0 34 -39 14 -70 -37z"/>
<path d="M962 1344 c-15 -11 -22 -25 -22 -50 0 -27 -5 -37 -24 -45 -20 -10
-29 -8 -52 10 -39 30 -67 27 -103 -14 -34 -39 -36 -47 -21 -76 10 -18 6 -19
-139 -19 -117 0 -150 -3 -154 -14 -12 -30 16 -36 170 -36 131 0 152 -2 147
-15 -4 -9 -19 -15 -39 -15 -31 0 -65 -25 -65 -48 0 -9 -43 -12 -154 -12 -156
0 -180 -6 -156 -35 10 -12 43 -15 160 -15 134 0 148 -2 165 -20 11 -12 31 -20
50 -20 20 0 35 -6 39 -15 5 -13 -17 -15 -163 -15 -134 0 -170 -3 -174 -14 -12
-30 16 -36 169 -36 l152 0 -5 -38 c-5 -34 -1 -42 27 -65 39 -33 70 -34 99 -3
20 21 26 22 52 13 24 -9 29 -17 29 -43 0 -45 23 -64 74 -64 51 0 76 22 76 67
0 23 6 33 26 42 23 10 30 9 49 -9 33 -31 78 -26 110 12 20 24 25 39 21 60 l-5
27 132 3 c124 3 132 4 132 23 0 19 -8 20 -147 23 -125 2 -146 5 -142 17 4 8
14 15 25 15 23 0 69 21 69 31 0 5 62 10 138 11 134 3 137 4 140 26 3 22 3 22
-132 22 -114 0 -136 2 -136 15 0 25 -38 55 -69 55 -17 0 -33 4 -36 10 -4 6 43
10 122 12 120 3 128 4 128 23 0 19 -8 20 -125 25 -69 3 -119 9 -112 13 25 17
14 64 -24 96 -39 35 -62 34 -100 -1 -18 -16 -25 -17 -48 -7 -20 10 -26 19 -26
45 0 39 -29 64 -75 64 -17 0 -41 -7 -53 -16z m82 -50 c3 -9 6 -28 6 -43 0 -24
6 -29 55 -46 l55 -18 28 26 c21 20 31 23 45 16 23 -13 22 -32 -3 -54 -25 -23
-25 -41 0 -99 18 -44 21 -46 60 -46 38 0 40 -2 40 -30 0 -28 -2 -30 -40 -30
-37 0 -40 -2 -60 -46 -26 -59 -25 -62 7 -96 26 -27 26 -28 8 -48 l-18 -20 -29
27 -28 27 -53 -19 c-60 -21 -67 -28 -67 -73 0 -63 -56 -50 -62 15 -3 32 -7 37
-52 54 -52 19 -76 15 -94 -18 -6 -10 -16 -14 -26 -10 -27 11 -30 36 -7 61 27
28 26 51 -2 101 -20 35 -27 40 -57 40 -31 0 -35 3 -38 28 -3 25 0 27 30 27 44
0 51 7 72 62 18 50 13 78 -21 96 -10 6 -14 16 -10 26 11 27 36 30 61 7 28 -26
42 -26 100 -1 44 18 46 21 46 60 0 36 3 40 24 40 13 0 27 -7 30 -16z"/>
<path d="M955 1156 c-43 -18 -93 -79 -101 -121 -21 -112 54 -205 167 -205 145
0 222 168 126 277 -52 60 -125 78 -192 49z m125 -51 c62 -32 80 -129 34 -184
-71 -85 -214 -38 -214 70 0 101 92 159 180 114z"/>
<path d="M242 373 c-41 -71 -39 -70 -62 -40 -24 30 -38 34 -46 12 -8 -20 47
-105 68 -105 21 0 103 134 94 155 -9 26 -31 17 -54 -22z"/>
<path d="M1804 363 c-15 -27 -28 -50 -30 -52 -2 -2 -14 9 -27 24 -24 28 -47
28 -47 -1 0 -25 52 -94 70 -94 21 0 104 134 96 156 -10 27 -34 14 -62 -33z"/>
</g>
</svg>
