<?xml version="1.0" standalone="no"?>
<!DOCTYPE svg PUBLIC "-//W3C//DTD SVG 20010904//EN"
 "http://www.w3.org/TR/2001/REC-SVG-20010904/DTD/svg10.dtd">
<svg version="1.0" xmlns="http://www.w3.org/2000/svg"
 width="198.000000pt" height="198.000000pt" viewBox="0 0 198.000000 198.000000"
 preserveAspectRatio="xMidYMid meet">

<g transform="translate(0.000000,198.000000) scale(0.100000,-0.100000)"
fill="#000000" stroke="none">
<path d="M277 1903 c-4 -3 -7 -51 -7 -105 l0 -98 -42 0 c-45 0 -80 -23 -71
-46 3 -10 22 -14 59 -14 l54 0 0 -120 0 -120 -44 0 c-28 0 -51 -6 -61 -16 -26
-26 6 -54 62 -54 l43 0 0 -120 0 -120 -48 0 c-59 0 -79 -16 -55 -42 11 -12 30
-18 60 -18 l44 0 -3 -117 -3 -118 -50 -3 c-56 -4 -72 -18 -48 -44 11 -12 31
-18 60 -18 l43 0 0 -120 0 -120 -49 0 c-31 0 -53 -5 -61 -15 -21 -26 5 -45 61
-45 l49 0 0 -65 0 -65 -84 0 c-101 0 -116 -5 -116 -36 0 -24 1 -24 100 -24
l100 0 0 -90 c0 -75 3 -92 16 -97 30 -11 44 25 44 109 l0 78 795 0 795 0 0 24
c0 13 -7 27 -16 30 -9 3 -321 6 -695 6 -373 0 -679 4 -679 8 0 5 35 18 78 29
42 11 132 38 200 60 118 38 126 42 173 94 27 30 68 74 90 99 140 153 129 145
204 130 22 -5 67 -13 100 -19 66 -12 389 -75 472 -92 60 -12 73 -7 73 26 0 21
-7 24 -92 40 -123 22 -226 41 -318 60 -275 56 -345 65 -352 46 -3 -10 -148
-170 -228 -252 -33 -34 -59 -50 -100 -62 -149 -44 -274 -82 -365 -112 -153
-51 -137 -65 -135 115 1 165 3 172 65 248 7 9 30 37 50 61 20 24 41 53 47 65
6 12 14 23 18 26 3 3 48 61 100 130 61 82 98 124 109 122 8 -2 69 -21 136 -43
66 -21 130 -39 142 -39 14 0 28 12 42 35 l21 36 37 -25 c48 -32 146 -66 189
-66 18 0 59 8 93 19 l60 19 28 -37 c15 -20 32 -41 39 -48 6 -6 16 -24 23 -40
14 -32 82 -90 116 -99 53 -13 145 66 145 124 0 42 -32 94 -75 121 -24 15 -65
44 -93 65 l-50 39 20 46 c38 85 27 219 -24 292 -14 21 -15 29 -5 36 6 6 89 48
184 94 148 72 172 87 173 107 0 12 -6 25 -14 28 -8 3 -68 -21 -133 -54 -65
-32 -152 -75 -193 -94 -75 -35 -75 -35 -102 -16 -82 57 -232 69 -328 26 -74
-33 -151 -119 -175 -195 -24 -77 -17 -185 16 -244 l25 -44 -19 -33 c-14 -23
-24 -31 -36 -27 -55 22 -258 85 -272 85 -9 0 -60 -60 -120 -141 -57 -78 -119
-160 -137 -182 -18 -22 -47 -59 -64 -83 -17 -24 -34 -44 -37 -44 -3 0 -5 254
-3 565 1 382 -1 572 -8 585 -11 20 -31 26 -43 13z m1109 -302 c126 -57 185
-180 155 -321 -14 -63 -45 -109 -104 -148 -112 -75 -228 -66 -330 28 -45 41
-57 60 -71 108 -20 74 -20 102 1 170 44 140 219 222 349 163z m170 -482 c3 -6
37 -31 75 -56 105 -67 119 -101 63 -154 -23 -22 -27 -23 -52 -8 -15 8 -36 30
-47 48 -11 18 -39 57 -63 87 -41 52 -41 55 -25 73 21 22 39 26 49 10z"/>
<path d="M1202 1523 c-127 -62 -135 -260 -14 -335 29 -18 51 -23 104 -23 59 0
70 3 105 31 56 46 78 89 77 154 0 115 -76 190 -191 190 -26 0 -63 -8 -81 -17z
m153 -62 c33 -19 64 -72 64 -111 1 -25 -32 -89 -53 -103 -57 -38 -146 -22
-183 33 -46 67 -22 153 52 190 43 22 70 20 120 -9z"/>
</g>
</svg>
