<svg width="264" height="264" viewBox="0 0 264 264" fill="none" xmlns="http://www.w3.org/2000/svg">
<path d="M18.6666 19.4667C7.86657 24.1333 2.13324 33.7333 2.93324 45.4667C4.13324 62 18.1332 72 35.3332 68.8C41.8666 67.4667 51.4666 58.5333 53.5999 51.8667L55.0666 46.6667H70.9332H86.7999L86.3999 64.2667C85.9999 79.3333 85.7332 81.8667 83.9999 81.4667C73.4666 78.6667 68.1332 78.4 61.1999 80.5333C52.2666 83.0667 42.7999 90.8 39.4666 98.4C37.3332 103.067 35.9999 104.133 28.7999 106.667C17.8666 110.667 6.79991 121.733 3.33324 132.133C-3.86676 153.467 5.33324 176.667 25.0666 186.267C32.5332 189.867 33.1999 190 59.7332 190.4L86.6666 190.8V204.133V217.333H70.7999H54.9332L53.3332 212.667C48.6666 198.533 32.5332 191.067 18.9332 196.667C-0.800094 205.067 -3.06676 232 15.0666 243.2C29.8666 252.4 49.8666 244.4 53.9999 227.6L54.9332 224H71.4666C93.3332 224 93.3332 224 93.3332 204.667V190.667H130H166.667V203.867C166.667 215.067 167.067 217.467 169.467 220.533C172.133 224 172.267 224 191.867 224H211.6L213.067 229.2C220.133 252.533 253.333 252.933 262.133 229.733C270 209.333 249.2 188.8 228.8 196.533C221.733 199.2 214 207.333 212.667 213.2L211.733 217.333H192.533H173.333V204.133V190.8L200.4 190.4C224.667 190 228 189.733 233.6 187.067C242.4 183.067 251.333 174.267 255.6 165.467C260.667 155.333 260.8 140.133 256.133 129.733C252.533 121.467 241.2 110.4 233.467 107.2C229.2 105.467 227.733 104.133 226.8 100.533C221.733 82 204.8 70.6667 185.2 72.5333C173.867 73.6 173.067 72.4 173.6 57.6L174 47.3333L193.067 46.9333C207.2 46.6667 212 47.0667 212 48.2667C212 49.0667 213.333 52.5333 214.8 55.7333C218.8 64 227.467 69.3333 236.8 69.3333C248.8 69.3333 256.667 64.5333 261.467 54C271.467 32.5333 248.933 10 227.333 19.8667C220.8 22.8 213.867 30.4 212.667 35.8667L211.733 40H192.667C168.8 40 167.733 40.5333 166.933 53.8667C166.4 62 166.133 62.6667 164.133 60.9333C160.133 57.3333 151.2 53.6 142.933 51.8667C128.133 48.8 111.6 53.4667 99.3332 64.2667L93.3332 69.6V58C93.3332 47.6 93.0666 46.2667 89.9999 43.3333C86.9332 40.1333 85.9999 40 70.7999 40H54.9332L53.3332 35.3333C48.6666 21.2 32.1332 13.6 18.6666 19.4667ZM39.1999 26.5333C48.1332 32.4 50.9332 45.2 45.3332 54.4C41.8666 60.1333 32.2666 64.5333 26.2666 63.2C14.9332 60.8 9.33324 54.2667 9.33324 43.3333C9.33324 34.8 13.4666 28.5333 21.3332 25.0667C25.4666 23.2 35.3332 24 39.1999 26.5333ZM247.733 26.6667C253.467 30.1333 257.333 36.8 257.333 43.0667C257.333 57.8667 243.333 67.3333 230.267 61.6C219.733 56.9333 215.2 46.5333 219.467 36.2667C223.867 25.0667 237.6 20.5333 247.733 26.6667ZM152.667 61.4667C156.4 63.2 163.067 68.2667 167.733 72.9333C175.2 80.5333 176.4 81.2 179.467 80C188.8 76.4 203.6 79.6 211.733 87.2C215.467 90.5333 220.133 99.0667 221.333 104.667C222 108 223.6 109.467 230.533 112.8C241.333 118.267 244.533 121.467 249.6 131.6C253.333 139.067 253.6 140.933 253.067 148.933C252 163.867 244.667 174.667 231.333 180.8L224.667 184H130H35.3332L28.6666 180.8C19.5999 176.667 11.1999 166.933 8.53324 157.6C2.53324 136.933 15.7332 115.067 36.6666 110.667C39.7332 110.133 41.4666 108.4 43.7332 104C51.9999 88.1333 65.7332 81.8667 80.6666 87.4667C83.5999 88.5333 86.5332 89.6 87.1999 89.7333C87.9999 89.8667 89.9999 87.2 91.8666 83.8667C98.9332 71.4667 107.333 63.8667 119.067 59.7333C128.533 56.4 143.467 57.0667 152.667 61.4667ZM37.1999 203.333C44.2666 206.933 47.9999 212.8 47.9999 220.133C47.9999 231.333 42.1332 238.667 31.7332 240.667C25.0666 241.867 15.5999 237.6 11.9999 231.733C8.26657 225.6 8.39991 214.933 12.2666 210C18.6666 201.867 29.0666 199.067 37.1999 203.333ZM247.733 204C261.467 212.4 260.267 232.533 245.733 238.933C237.467 242.533 230.267 241.2 223.867 234.8C217.067 228.133 216 220.8 220.267 212.4C225.467 202 238 198.133 247.733 204Z" fill="#FE330A"/>
<path d="M31.1999 40.6667C27.3333 47.3333 26.1333 47.8667 23.9999 44C22.2666 40.8 17.3333 40.4 17.3333 43.4667C17.3333 45.8667 24.9333 57.3333 26.5333 57.3333C28.9333 57.3333 39.9999 40.2667 39.9999 36.6667C39.9999 32.2667 34.7999 34.8 31.1999 40.6667Z" fill="#FE330A"/>
<path d="M240 40.2667L235.733 47.2L233.6 43.6C231.067 39.4667 226.667 38.8 226.667 42.4C226.667 45.2 234 56 235.867 56C238.267 56 249.333 39.0667 249.333 35.3333C249.333 30.8 244.133 33.4667 240 40.2667Z" fill="#FE330A"/>
<path d="M128.267 84.8C126.267 86.2667 125.333 88.1333 125.333 91.4667C125.333 95.0667 124.667 96.4 122.133 97.4667C119.467 98.8 118.267 98.5333 115.2 96.1333C110 92.1333 106.267 92.5333 101.467 98C96.9333 103.2 96.6667 104.267 98.6667 108.133C100 110.533 99.4667 110.667 80.1333 110.667C64.5333 110.667 60.1333 111.067 59.6 112.533C58 116.533 61.7333 117.333 82.2667 117.333C99.7333 117.333 102.533 117.6 101.867 119.333C101.333 120.533 99.3333 121.333 96.6667 121.333C92.5333 121.333 88 124.667 88 127.733C88 128.933 82.2667 129.333 67.4667 129.333C46.6667 129.333 43.4667 130.133 46.6667 134C48 135.6 52.4 136 68 136C85.8667 136 87.7333 136.267 90 138.667C91.4667 140.267 94.1333 141.333 96.6667 141.333C99.3333 141.333 101.333 142.133 101.867 143.333C102.533 145.067 99.6 145.333 80.1333 145.333C62.2667 145.333 57.4667 145.733 56.9333 147.2C55.3333 151.2 59.0667 152 79.4667 152H99.7333L99.0667 157.067C98.4 161.6 98.9333 162.667 102.667 165.733C107.867 170.133 112 170.267 115.867 166.133C118.533 163.333 119.333 163.2 122.8 164.4C126 165.6 126.667 166.667 126.667 170.133C126.667 176.133 129.733 178.667 136.533 178.667C143.333 178.667 146.667 175.733 146.667 169.733C146.667 166.667 147.467 165.333 150.133 164.133C153.2 162.8 154.133 162.933 156.667 165.333C161.067 169.467 167.067 168.8 171.333 163.733C174 160.533 174.667 158.533 174.133 155.733L173.467 152.133L191.067 151.733C207.6 151.333 208.667 151.2 208.667 148.667C208.667 146.133 207.6 146 189.067 145.6C172.4 145.333 169.6 144.933 170.133 143.333C170.667 142.267 172 141.333 173.467 141.333C176.533 141.333 182.667 138.533 182.667 137.2C182.667 136.533 190.933 135.867 201.067 135.733C218.933 135.333 219.333 135.2 219.733 132.267C220.133 129.333 220.133 129.333 202.133 129.333C186.933 129.333 184 129.067 184 127.333C184 124 178.933 120 174.8 120C172.533 120 170.4 119.467 170 118.667C169.467 117.867 175.733 117.333 186.267 117.067C202.267 116.667 203.333 116.533 203.333 114C203.333 111.467 202.267 111.333 186.667 110.667C177.467 110.267 170.8 109.467 171.733 108.933C175.067 106.667 173.6 100.4 168.533 96.1333C163.333 91.4667 160.267 91.6 155.2 96.2667C152.8 98.4 151.867 98.5333 148.8 97.2C146.133 95.8667 145.333 94.6667 145.333 91.2C145.333 86 141.467 82.6667 135.333 82.6667C133.067 82.6667 129.867 83.6 128.267 84.8ZM139.2 91.4667C139.6 92.6667 140 95.2 140 97.2C140 100.4 140.8 101.067 147.333 103.333L154.667 105.733L158.4 102.267C161.2 99.6 162.533 99.2 164.4 100.133C167.467 101.867 167.333 104.4 164 107.333C160.667 110.4 160.667 112.8 164 120.533C166.4 126.4 166.8 126.667 172 126.667C177.067 126.667 177.333 126.933 177.333 130.667C177.333 134.4 177.067 134.667 172 134.667C167.067 134.667 166.667 134.933 164 140.8C160.533 148.667 160.667 149.067 164.933 153.6C168.4 157.2 168.4 157.333 166 160L163.6 162.667L159.733 159.067L156 155.467L148.933 158C140.933 160.8 140 161.733 140 167.733C140 176.133 132.533 174.4 131.733 165.733C131.333 161.467 130.8 160.8 124.8 158.533C117.867 156 114.667 156.533 112.267 160.933C111.467 162.267 110.133 162.8 108.8 162.267C105.2 160.8 104.8 157.467 107.867 154.133C111.467 150.4 111.333 147.333 107.6 140.667C104.933 136 104 135.333 100 135.333C95.8667 135.333 95.3333 134.933 94.9333 131.6C94.5333 128.267 94.9333 128 98.9333 128C104.8 128 105.733 127.067 108.533 119.733C110.933 113.067 110.267 109.333 105.733 106.933C104.4 106.133 103.867 104.8 104.4 103.467C105.867 99.8667 109.2 99.4667 112.533 102.533C116.267 106 118.133 106 125.867 102.667C131.733 100.267 132 99.8667 132 94.6667C132 89.8667 132.4 89.3333 135.2 89.3333C136.933 89.3333 138.8 90.2667 139.2 91.4667Z" fill="#FE330A"/>
<path d="M127.333 109.867C121.6 112.267 114.933 120.4 113.867 126C111.067 140.933 121.067 153.333 136.133 153.333C155.467 153.333 165.733 130.933 152.933 116.4C146 108.4 136.267 106 127.333 109.867ZM144 116.667C152.267 120.933 154.667 133.867 148.533 141.2C139.067 152.533 120 146.267 120 131.867C120 118.4 132.267 110.667 144 116.667Z" fill="#FE330A"/>
<path d="M32.2666 214.267C26.8 223.733 27.0666 223.6 24 219.6C20.8 215.6 18.9333 215.067 17.8666 218C16.8 220.667 24.1333 232 26.9333 232C29.7333 232 40.6666 214.133 39.4666 211.333C38.2666 207.867 35.3333 209.067 32.2666 214.267Z" fill="#FE330A"/>
<path d="M240.533 215.6C238.533 219.2 236.8 222.267 236.533 222.533C236.267 222.8 234.667 221.333 232.933 219.333C229.733 215.6 226.667 215.6 226.667 219.467C226.667 222.8 233.6 232 236 232C238.8 232 249.867 214.133 248.8 211.2C247.467 207.6 244.267 209.333 240.533 215.6Z" fill="#FE330A"/>
</svg>
